# xmcd
#
# Track frame offsets:
#	182
#	15257
#	32095
#	47710
#	63285
#	79810
#	91232
#	109057
#	127497
#	145395
#	165072
#	176492
#
# Disc length: 2560 seconds
#
# Revision: 1
# Processed by: cddbd v1.5.1PL0 Copyright (c) Steve Scherf et al.
# Submitted via: audiograbber 1.83.01
#
DISCID=9409fe0c
DTITLE=Geoff Perry - Picture In My Pocket
DYEAR=1900
DGENRE=Country
TTITLE0=Seeds Of Yesterday
TTITLE1=Picture In My Pocket
TTITLE2=Love Of The Land
TTITLE3=Flip A Coin
TTITLE4=I Remember
TTITLE5=Cobb and Co
TTITLE6=Midnight Bus
TTITLE7=Tears From The Sky
TTITLE8=Reflections Of My Dreams
TTITLE9=Thinking Of You
TTITLE10=Happy Go Lucky
TTITLE11=The Outlaw
EXTD=
EXTT0=
EXTT1=
EXTT2=
EXTT3=
EXTT4=
EXTT5=
EXTT6=
EXTT7=
EXTT8=
EXTT9=
EXTT10=
EXTT11=
PLAYORDER=
